{"asset":{"version":"2.0","generator":"Blockbench 5.0.7 glTF exporter"},"scenes":[{"nodes":[4],"name":"blockbench_export"}],"scene":0,"nodes":[{"translation":[0.1859375,0.0015624999999999944,-0.008408125000000016],"name":"DoorBase","mesh":0},{"rotation":[0,0,-0.7071067811865475,0.7071067811865476],"translation":[0.2546875,-0.0015624999999999944,-0.008408125000000016],"name":"DoorDingle","mesh":1},{"translation":[-0.1609375,0.1390625,0.089658125],"name":"Door","children":[0,1]},{"translation":[0,0,0.21875],"name":"Base","mesh":2},{"translation":[0,0,-0.21875],"name":"root","children":[2,3]}],"bufferViews":[{"buffer":0,"byteOffset":0,"byteLength":672,"target":34962,"byteStride":12},{"buffer":0,"byteOffset":672,"byteLength":672,"target":34962,"byteStride":12},{"buffer":0,"byteOffset":1344,"byteLength":448,"target":34962,"byteStride":8},{"buffer":0,"byteOffset":1792,"byteLength":168,"target":34963},{"buffer":0,"byteOffset":1960,"byteLength":840,"target":34962,"byteStride":12},{"buffer":0,"byteOffset":2800,"byteLength":840,"target":34962,"byteStride":12},{"buffer":0,"byteOffset":3640,"byteLength":560,"target":34962,"byteStride":8},{"buffer":0,"byteOffset":4200,"byteLength":168,"target":34963},{"buffer":0,"byteOffset":4368,"byteLength":672,"target":34962,"byteStride":12},{"buffer":0,"byteOffset":5040,"byteLength":672,"target":34962,"byteStride":12},{"buffer":0,"byteOffset":5712,"byteLength":448,"target":34962,"byteStride":8},{"buffer":0,"byteOffset":6160,"byteLength":168,"target":34963}],"buffers":[{"byteLength":6328,"uri":"data:application/octet-stream;base64,"}],"accessors":[{"bufferView":0,"componentType":5126,"count":56,"max":[0.14765624701976776,0.11953125149011612,0.02187499962747097],"min":[-0.19765624403953552,-0.11953125149011612,-0.015625],"type":"VEC3"},{"bufferView":1,"componentType":5126,"count":56,"max":[1,1,1],"min":[-1,-1,-1],"type":"VEC3"},{"bufferView":2,"componentType":5126,"count":56,"max":[0.78125,0.8125],"min":[0.0035156249068677425,0.25],"type":"VEC2"},{"bufferView":3,"componentType":5123,"count":84,"max":[55],"min":[0],"type":"SCALAR"},{"bufferView":4,"componentType":5126,"count":70,"max":[0.03750000149011612,0.01875000074505806,0.010048124939203262],"min":[-0.03750000149011612,0,-0.03750000149011612],"type":"VEC3"},{"bufferView":5,"componentType":5126,"count":70,"max":[1,1,0],"min":[-1,-1,-1],"type":"VEC3"},{"bufferView":6,"componentType":5126,"count":70,"max":[0.7494500279426575,0.7425249814987183],"min":[0.0007812500116415322,0],"type":"VEC2"},{"bufferView":7,"componentType":5123,"count":84,"max":[69],"min":[0],"type":"SCALAR"},{"bufferView":8,"componentType":5126,"count":56,"max":[0.203125,0.28125,0.140625],"min":[-0.203125,0,-0.140625],"type":"VEC3"},{"bufferView":9,"componentType":5126,"count":56,"max":[1,1,1],"min":[-1,-1,-1],"type":"VEC3"},{"bufferView":10,"componentType":5126,"count":56,"max":[0.71875,0.6875],"min":[0,0],"type":"VEC2"},{"bufferView":11,"componentType":5123,"count":84,"max":[55],"min":[0],"type":"SCALAR"}],"materials":[{"pbrMetallicRoughness":{"metallicFactor":0,"roughnessFactor":1,"baseColorTexture":{"index":0}},"alphaMode":"MASK","alphaCutoff":0.05,"doubleSided":true}],"textures":[{"sampler":0,"source":0,"name":"tx_safe.png"}],"samplers":[{"magFilter":9728,"minFilter":9728,"wrapS":33071,"wrapT":33071}],"images":[{"mimeType":"image/png","uri":"data:image/png;base64,"}],"meshes":[{"primitives":[{"mode":4,"attributes":{"POSITION":0,"NORMAL":1,"TEXCOORD_0":2},"indices":3,"material":0}]},{"primitives":[{"mode":4,"attributes":{"POSITION":4,"NORMAL":5,"TEXCOORD_0":6},"indices":7,"material":0}]},{"primitives":[{"mode":4,"attributes":{"POSITION":8,"NORMAL":9,"TEXCOORD_0":10},"indices":11,"material":0}]}]}