{"asset":{"version":"2.0","generator":"Blockbench 5.0.7 glTF exporter"},"scenes":[{"nodes":[1],"name":"blockbench_export"}],"scene":0,"nodes":[{"name":"mesh","mesh":0},{"name":"root","children":[0]}],"bufferViews":[{"buffer":0,"byteOffset":0,"byteLength":2976,"target":34962,"byteStride":12},{"buffer":0,"byteOffset":2976,"byteLength":2976,"target":34962,"byteStride":12},{"buffer":0,"byteOffset":5952,"byteLength":1984,"target":34962,"byteStride":8},{"buffer":0,"byteOffset":7936,"byteLength":744,"target":34963}],"buffers":[{"byteLength":8680,"uri":"data:application/octet-stream;base64,"}],"accessors":[{"bufferView":0,"componentType":5126,"count":248,"max":[0.3125,1,0.3125],"min":[-0.3125,0,-0.3125],"type":"VEC3"},{"bufferView":1,"componentType":5126,"count":248,"max":[1,1,1],"min":[-1,-1,-1],"type":"VEC3"},{"bufferView":2,"componentType":5126,"count":248,"max":[0.171875,0.25],"min":[0,0],"type":"VEC2"},{"bufferView":3,"componentType":5123,"count":372,"max":[247],"min":[0],"type":"SCALAR"}],"materials":[{"pbrMetallicRoughness":{"metallicFactor":0,"roughnessFactor":1},"alphaMode":"MASK","alphaCutoff":0.05,"doubleSided":true}],"meshes":[{"primitives":[{"mode":4,"attributes":{"POSITION":0,"NORMAL":1,"TEXCOORD_0":2},"indices":3,"material":0}]}]}