{"asset":{"version":"2.0","generator":"Blockbench 5.0.7 glTF exporter"},"scenes":[{"nodes":[5],"name":"blockbench_export"}],"scene":0,"nodes":[{"rotation":[0,0,0.7071067811865475,0.7071067811865476],"translation":[0.5,0,0],"name":"Coiled","mesh":0},{"translation":[-0.375,0.109375,0],"name":"Holder2","mesh":1},{"translation":[0.375,0.109375,0],"name":"Holder1","mesh":2},{"translation":[0,0.25,0],"name":"segment","mesh":3},{"translation":[-0.75,0.25,0],"name":"segment2","mesh":4},{"name":"root","children":[0,1,2,3,4]}],"bufferViews":[{"buffer":0,"byteOffset":0,"byteLength":2184,"target":34962,"byteStride":12},{"buffer":0,"byteOffset":2184,"byteLength":2184,"target":34962,"byteStride":12},{"buffer":0,"byteOffset":4368,"byteLength":1456,"target":34962,"byteStride":8},{"buffer":0,"byteOffset":5824,"byteLength":504,"target":34963},{"buffer":0,"byteOffset":6328,"byteLength":600,"target":34962,"byteStride":12},{"buffer":0,"byteOffset":6928,"byteLength":600,"target":34962,"byteStride":12},{"buffer":0,"byteOffset":7528,"byteLength":400,"target":34962,"byteStride":8},{"buffer":0,"byteOffset":7928,"byteLength":120,"target":34963},{"buffer":0,"byteOffset":8048,"byteLength":600,"target":34962,"byteStride":12},{"buffer":0,"byteOffset":8648,"byteLength":600,"target":34962,"byteStride":12},{"buffer":0,"byteOffset":9248,"byteLength":400,"target":34962,"byteStride":8},{"buffer":0,"byteOffset":9648,"byteLength":120,"target":34963},{"buffer":0,"byteOffset":9768,"byteLength":1728,"target":34962,"byteStride":12},{"buffer":0,"byteOffset":11496,"byteLength":1728,"target":34962,"byteStride":12},{"buffer":0,"byteOffset":13224,"byteLength":1152,"target":34962,"byteStride":8},{"buffer":0,"byteOffset":14376,"byteLength":288,"target":34963},{"buffer":0,"byteOffset":14664,"byteLength":1728,"target":34962,"byteStride":12},{"buffer":0,"byteOffset":16392,"byteLength":1728,"target":34962,"byteStride":12},{"buffer":0,"byteOffset":18120,"byteLength":1152,"target":34962,"byteStride":8},{"buffer":0,"byteOffset":19272,"byteLength":288,"target":34963}],"buffers":[{"byteLength":19560,"uri":"data:application/octet-stream;base64,"}],"accessors":[{"bufferView":0,"componentType":5126,"count":182,"max":[0.13526104390621185,1.0625,0.125],"min":[-0.13526104390621185,-0.0625,-0.13873952627182007],"type":"VEC3"},{"bufferView":1,"componentType":5126,"count":182,"max":[0.9749279022216797,1,1],"min":[-0.9749279022216797,-1,-0.9009688496589661],"type":"VEC3"},{"bufferView":2,"componentType":5126,"count":182,"max":[0.78125,0.90625],"min":[0,0],"type":"VEC2"},{"bufferView":3,"componentType":5123,"count":252,"max":[181],"min":[0],"type":"SCALAR"},{"bufferView":4,"componentType":5126,"count":50,"max":[0.03673657774925232,0.5625,0.03125],"min":[-0.03673657774925232,0,-0.038627125322818756],"type":"VEC3"},{"bufferView":5,"componentType":5126,"count":50,"max":[0.9510565400123596,1,1],"min":[-0.9510565400123596,-1,-0.80901700258255],"type":"VEC3"},{"bufferView":6,"componentType":5126,"count":50,"max":[0.8191499710083008,0.9375],"min":[0.09375,0.4728749990463257],"type":"VEC2"},{"bufferView":7,"componentType":5123,"count":60,"max":[49],"min":[0],"type":"SCALAR"},{"bufferView":8,"componentType":5126,"count":50,"max":[0.03673657774925232,0.5625,0.03125],"min":[-0.03673657774925232,0,-0.038627125322818756],"type":"VEC3"},{"bufferView":9,"componentType":5126,"count":50,"max":[0.9510565400123596,1,1],"min":[-0.9510565400123596,-1,-0.80901700258255],"type":"VEC3"},{"bufferView":10,"componentType":5126,"count":50,"max":[0.8191499710083008,0.90625],"min":[0.21875,0],"type":"VEC2"},{"bufferView":11,"componentType":5123,"count":60,"max":[49],"min":[0],"type":"SCALAR"},{"bufferView":12,"componentType":5126,"count":144,"max":[0.42455437779426575,0.4391123950481415,0.055527955293655396],"min":[0.32741987705230713,-0.1588323414325714,-0.053166359663009644],"type":"VEC3"},{"bufferView":13,"componentType":5126,"count":144,"max":[0.8404554128646851,0.8170809149742126,0.9911792278289795],"min":[-0.9998365044593811,-0.6318812370300293,-0.9555129408836365],"type":"VEC3"},{"bufferView":14,"componentType":5126,"count":144,"max":[1,1],"min":[0,0],"type":"VEC2"},{"bufferView":15,"componentType":5123,"count":144,"max":[143],"min":[0],"type":"SCALAR"},{"bufferView":16,"componentType":5126,"count":144,"max":[0.42455437779426575,0.4391123950481415,0.055527955293655396],"min":[0.32741987705230713,-0.1588323414325714,-0.053166359663009644],"type":"VEC3"},{"bufferView":17,"componentType":5126,"count":144,"max":[0.8404554128646851,0.8170809149742126,0.9911792278289795],"min":[-0.9998365044593811,-0.6318812370300293,-0.9555129408836365],"type":"VEC3"},{"bufferView":18,"componentType":5126,"count":144,"max":[1,1],"min":[0,0],"type":"VEC2"},{"bufferView":19,"componentType":5123,"count":144,"max":[143],"min":[0],"type":"SCALAR"}],"materials":[{"pbrMetallicRoughness":{"metallicFactor":0,"roughnessFactor":1,"baseColorTexture":{"index":0}},"alphaMode":"MASK","alphaCutoff":0.05,"doubleSided":true},{"pbrMetallicRoughness":{"metallicFactor":0,"roughnessFactor":1},"alphaMode":"MASK","alphaCutoff":0.05,"doubleSided":true}],"textures":[{"sampler":0,"source":0,"name":"tx_electromagnet"}],"samplers":[{"magFilter":9728,"minFilter":9728,"wrapS":33071,"wrapT":33071}],"images":[{"mimeType":"image/png","uri":"data:image/png;base64,"}],"meshes":[{"primitives":[{"mode":4,"attributes":{"POSITION":0,"NORMAL":1,"TEXCOORD_0":2},"indices":3,"material":0}]},{"primitives":[{"mode":4,"attributes":{"POSITION":4,"NORMAL":5,"TEXCOORD_0":6},"indices":7,"material":0}]},{"primitives":[{"mode":4,"attributes":{"POSITION":8,"NORMAL":9,"TEXCOORD_0":10},"indices":11,"material":0}]},{"primitives":[{"mode":4,"attributes":{"POSITION":12,"NORMAL":13,"TEXCOORD_0":14},"indices":15,"material":1}]},{"primitives":[{"mode":4,"attributes":{"POSITION":16,"NORMAL":17,"TEXCOORD_0":18},"indices":19,"material":1}]}]}