{"asset":{"version":"2.0","generator":"Blockbench 5.0.7 glTF exporter"},"scenes":[{"nodes":[4],"name":"blockbench_export"}],"scene":0,"nodes":[{"name":"Top","mesh":0},{"translation":[-0.9375,0,0.4375],"name":"BackLegs","mesh":1},{"translation":[0.9375,0,-0.4375],"name":"RightLeg","mesh":2},{"translation":[-0.9375,0,-0.4375],"name":"LeftLeg","mesh":3},{"name":"root","children":[0,1,2,3]}],"bufferViews":[{"buffer":0,"byteOffset":0,"byteLength":288,"target":34962,"byteStride":12},{"buffer":0,"byteOffset":288,"byteLength":288,"target":34962,"byteStride":12},{"buffer":0,"byteOffset":576,"byteLength":192,"target":34962,"byteStride":8},{"buffer":0,"byteOffset":768,"byteLength":72,"target":34963},{"buffer":0,"byteOffset":840,"byteLength":1632,"target":34962,"byteStride":12},{"buffer":0,"byteOffset":2472,"byteLength":1632,"target":34962,"byteStride":12},{"buffer":0,"byteOffset":4104,"byteLength":1088,"target":34962,"byteStride":8},{"buffer":0,"byteOffset":5192,"byteLength":408,"target":34963},{"buffer":0,"byteOffset":5600,"byteLength":288,"target":34962,"byteStride":12},{"buffer":0,"byteOffset":5888,"byteLength":288,"target":34962,"byteStride":12},{"buffer":0,"byteOffset":6176,"byteLength":192,"target":34962,"byteStride":8},{"buffer":0,"byteOffset":6368,"byteLength":72,"target":34963},{"buffer":0,"byteOffset":6440,"byteLength":288,"target":34962,"byteStride":12},{"buffer":0,"byteOffset":6728,"byteLength":288,"target":34962,"byteStride":12},{"buffer":0,"byteOffset":7016,"byteLength":192,"target":34962,"byteStride":8},{"buffer":0,"byteOffset":7208,"byteLength":72,"target":34963}],"buffers":[{"byteLength":7280,"uri":"data:application/octet-stream;base64,"}],"accessors":[{"bufferView":0,"componentType":5126,"count":24,"max":[1,1,0.5],"min":[-1,0.96875,-0.5],"type":"VEC3"},{"bufferView":1,"componentType":5126,"count":24,"max":[1,1,1],"min":[-1,-1,-1],"type":"VEC3"},{"bufferView":2,"componentType":5126,"count":24,"max":[0.5078125,0.296875],"min":[0,0],"type":"VEC2"},{"bufferView":3,"componentType":5123,"count":36,"max":[23],"min":[0],"type":"SCALAR"},{"bufferView":4,"componentType":5126,"count":136,"max":[1.9140625,0.96875,0.0390625],"min":[-0.0390625,0,-0.0390625],"type":"VEC3"},{"bufferView":5,"componentType":5126,"count":136,"max":[1,1,1],"min":[-1,-1,-1],"type":"VEC3"},{"bufferView":6,"componentType":5126,"count":136,"max":[0.501953125,0.41796875],"min":[0,0],"type":"VEC2"},{"bufferView":7,"componentType":5123,"count":204,"max":[135],"min":[0],"type":"SCALAR"},{"bufferView":8,"componentType":5126,"count":24,"max":[0.0390625,0.96875,0.0390625],"min":[-0.0390625,0,-0.0390625],"type":"VEC3"},{"bufferView":9,"componentType":5126,"count":24,"max":[1,1,1],"min":[-1,-1,-1],"type":"VEC3"},{"bufferView":10,"componentType":5126,"count":24,"max":[0.21875,0.421875],"min":[0.1328125,0.296875],"type":"VEC2"},{"bufferView":11,"componentType":5123,"count":36,"max":[23],"min":[0],"type":"SCALAR"},{"bufferView":12,"componentType":5126,"count":24,"max":[0.0390625,0.96875,0.0390625],"min":[-0.0390625,0,-0.0390625],"type":"VEC3"},{"bufferView":13,"componentType":5126,"count":24,"max":[1,1,1],"min":[-1,-1,-1],"type":"VEC3"},{"bufferView":14,"componentType":5126,"count":24,"max":[0.2265625,0.421875],"min":[0.0703125,0.296875],"type":"VEC2"},{"bufferView":15,"componentType":5123,"count":36,"max":[23],"min":[0],"type":"SCALAR"}],"materials":[{"pbrMetallicRoughness":{"metallicFactor":0,"roughnessFactor":1,"baseColorTexture":{"index":0}},"alphaMode":"MASK","alphaCutoff":0.05,"doubleSided":true}],"textures":[{"sampler":0,"source":0,"name":"tx_desk.png"}],"samplers":[{"magFilter":9728,"minFilter":9728,"wrapS":33071,"wrapT":33071}],"images":[{"mimeType":"image/png","uri":"data:image/png;base64,"}],"meshes":[{"primitives":[{"mode":4,"attributes":{"POSITION":0,"NORMAL":1,"TEXCOORD_0":2},"indices":3,"material":0}]},{"primitives":[{"mode":4,"attributes":{"POSITION":4,"NORMAL":5,"TEXCOORD_0":6},"indices":7,"material":0}]},{"primitives":[{"mode":4,"attributes":{"POSITION":8,"NORMAL":9,"TEXCOORD_0":10},"indices":11,"material":0}]},{"primitives":[{"mode":4,"attributes":{"POSITION":12,"NORMAL":13,"TEXCOORD_0":14},"indices":15,"material":0}]}]}