{"asset":{"version":"2.0","generator":"Blockbench 5.1.0 glTF exporter"},"scenes":[{"nodes":[2],"name":"blockbench_export"}],"scene":0,"nodes":[{"name":"Base","mesh":0},{"name":"Window","mesh":1},{"name":"root","children":[0,1]}],"bufferViews":[{"buffer":0,"byteOffset":0,"byteLength":768,"target":34962,"byteStride":12},{"buffer":0,"byteOffset":768,"byteLength":768,"target":34962,"byteStride":12},{"buffer":0,"byteOffset":1536,"byteLength":512,"target":34962,"byteStride":8},{"buffer":0,"byteOffset":2048,"byteLength":192,"target":34963},{"buffer":0,"byteOffset":2240,"byteLength":48,"target":34962,"byteStride":12},{"buffer":0,"byteOffset":2288,"byteLength":48,"target":34962,"byteStride":12},{"buffer":0,"byteOffset":2336,"byteLength":32,"target":34962,"byteStride":8},{"buffer":0,"byteOffset":2368,"byteLength":12,"target":34963}],"buffers":[{"byteLength":2380,"uri":"data:application/octet-stream;base64,"}],"accessors":[{"bufferView":0,"componentType":5126,"count":64,"max":[0.5,2,0.03125],"min":[-0.5,0,-0.04374999925494194],"type":"VEC3"},{"bufferView":1,"componentType":5126,"count":64,"max":[1,1,1],"min":[-1,-1,-1],"type":"VEC3"},{"bufferView":2,"componentType":5126,"count":64,"max":[0.40625,0.5078125],"min":[0.0009765625,0],"type":"VEC2"},{"bufferView":3,"componentType":5123,"count":96,"max":[63],"min":[0],"type":"SCALAR"},{"bufferView":4,"componentType":5126,"count":4,"max":[0.3675000071525574,1.8674999475479126,-0.015625],"min":[-0.3675000071525574,0.13249999284744263,-0.015625],"type":"VEC3"},{"bufferView":5,"componentType":5126,"count":4,"max":[0,0,1],"min":[0,0,1],"type":"VEC3"},{"bufferView":6,"componentType":5126,"count":4,"max":[0.091796875,0.474609375],"min":[0,0.2578125],"type":"VEC2"},{"bufferView":7,"componentType":5123,"count":6,"max":[3],"min":[0],"type":"SCALAR"}],"materials":[{"pbrMetallicRoughness":{"metallicFactor":0,"roughnessFactor":1,"baseColorTexture":{"index":0}},"alphaMode":"MASK","alphaCutoff":0.05,"doubleSided":true}],"textures":[{"sampler":0,"source":0,"name":"window_door_0.png"}],"samplers":[{"magFilter":9728,"minFilter":9728,"wrapS":33071,"wrapT":33071}],"images":[{"mimeType":"image/png","uri":"data:image/png;base64,"}],"meshes":[{"primitives":[{"mode":4,"attributes":{"POSITION":0,"NORMAL":1,"TEXCOORD_0":2},"indices":3,"material":0}]},{"primitives":[{"mode":4,"attributes":{"POSITION":4,"NORMAL":5,"TEXCOORD_0":6},"indices":7,"material":0}]}]}