{"asset":{"version":"2.0","generator":"Blockbench 5.0.7 glTF exporter"},"scenes":[{"nodes":[6,7,8,9],"name":"blockbench_export"}],"scene":0,"nodes":[{"translation":[0,0.09375,0],"name":"monitor_main","mesh":0},{"name":"monitor_base","mesh":1},{"translation":[0.5,0,0],"name":"pc","mesh":2},{"translation":[0.0625,-0.015625,-0.4375],"name":"keyboard","mesh":3},{"translation":[-0.375,-0.0390625,-0.4375],"name":"mouse","mesh":4},{"name":"pc_parts","children":[2,3,4]},{"name":"root","children":[0,1,5]},{"rotation":[0,0.9153114791194471,0,0.40274668985873724],"translation":[-0.1875,0,0],"name":"segment","mesh":5},{"rotation":[0,0.9153114791194471,0,0.40274668985873724],"translation":[-0.1875,0,0],"name":"segment","mesh":6},{"rotation":[0,0.9153114791194471,0,0.40274668985873724],"translation":[-0.1875,0,0],"name":"segment","mesh":7}],"bufferViews":[{"buffer":0,"byteOffset":0,"byteLength":3168,"target":34962,"byteStride":12},{"buffer":0,"byteOffset":3168,"byteLength":3168,"target":34962,"byteStride":12},{"buffer":0,"byteOffset":6336,"byteLength":2112,"target":34962,"byteStride":8},{"buffer":0,"byteOffset":8448,"byteLength":792,"target":34963},{"buffer":0,"byteOffset":9240,"byteLength":1512,"target":34962,"byteStride":12},{"buffer":0,"byteOffset":10752,"byteLength":1512,"target":34962,"byteStride":12},{"buffer":0,"byteOffset":12264,"byteLength":1008,"target":34962,"byteStride":8},{"buffer":0,"byteOffset":13272,"byteLength":324,"target":34963},{"buffer":0,"byteOffset":13596,"byteLength":288,"target":34962,"byteStride":12},{"buffer":0,"byteOffset":13884,"byteLength":288,"target":34962,"byteStride":12},{"buffer":0,"byteOffset":14172,"byteLength":192,"target":34962,"byteStride":8},{"buffer":0,"byteOffset":14364,"byteLength":72,"target":34963},{"buffer":0,"byteOffset":14436,"byteLength":288,"target":34962,"byteStride":12},{"buffer":0,"byteOffset":14724,"byteLength":288,"target":34962,"byteStride":12},{"buffer":0,"byteOffset":15012,"byteLength":192,"target":34962,"byteStride":8},{"buffer":0,"byteOffset":15204,"byteLength":72,"target":34963},{"buffer":0,"byteOffset":15276,"byteLength":480,"target":34962,"byteStride":12},{"buffer":0,"byteOffset":15756,"byteLength":480,"target":34962,"byteStride":12},{"buffer":0,"byteOffset":16236,"byteLength":320,"target":34962,"byteStride":8},{"buffer":0,"byteOffset":16556,"byteLength":120,"target":34963},{"buffer":0,"byteOffset":16676,"byteLength":2880,"target":34962,"byteStride":12},{"buffer":0,"byteOffset":19556,"byteLength":2880,"target":34962,"byteStride":12},{"buffer":0,"byteOffset":22436,"byteLength":1920,"target":34962,"byteStride":8},{"buffer":0,"byteOffset":24356,"byteLength":480,"target":34963},{"buffer":0,"byteOffset":24836,"byteLength":2880,"target":34962,"byteStride":12},{"buffer":0,"byteOffset":27716,"byteLength":2880,"target":34962,"byteStride":12},{"buffer":0,"byteOffset":30596,"byteLength":1920,"target":34962,"byteStride":8},{"buffer":0,"byteOffset":32516,"byteLength":480,"target":34963},{"buffer":0,"byteOffset":32996,"byteLength":2880,"target":34962,"byteStride":12},{"buffer":0,"byteOffset":35876,"byteLength":2880,"target":34962,"byteStride":12},{"buffer":0,"byteOffset":38756,"byteLength":1920,"target":34962,"byteStride":8},{"buffer":0,"byteOffset":40676,"byteLength":480,"target":34963}],"buffers":[{"byteLength":41156,"uri":"data:application/octet-stream;base64,"}],"accessors":[{"bufferView":0,"componentType":5126,"count":264,"max":[0.21875,0.328125,0.20624999701976776],"min":[-0.21875,-0.02500000037252903,-0.21875],"type":"VEC3"},{"bufferView":1,"componentType":5126,"count":264,"max":[1,1,1],"min":[-1,-1,-1],"type":"VEC3"},{"bufferView":2,"componentType":5126,"count":264,"max":[0.7796843647956848,0.75],"min":[0,0],"type":"VEC2"},{"bufferView":3,"componentType":5123,"count":396,"max":[263],"min":[0],"type":"SCALAR"},{"bufferView":4,"componentType":5126,"count":126,"max":[0.17193937301635742,0.109375,0.1640625],"min":[-0.17193937301635742,0,-0.17459186911582947],"type":"VEC3"},{"bufferView":5,"componentType":5126,"count":126,"max":[0.9842440485954285,1,1],"min":[-0.9842440485954285,-1,-0.9417108297348022],"type":"VEC3"},{"bufferView":6,"componentType":5126,"count":126,"max":[0.6318593621253967,0.6068280935287476],"min":[0.03125,0.002546846866607666],"type":"VEC2"},{"bufferView":7,"componentType":5123,"count":162,"max":[125],"min":[0],"type":"SCALAR"},{"bufferView":8,"componentType":5126,"count":24,"max":[0.125,0.5,0.25],"min":[-0.125,0,-0.25],"type":"VEC3"},{"bufferView":9,"componentType":5126,"count":24,"max":[1,1,1],"min":[-1,-1,-1],"type":"VEC3"},{"bufferView":10,"componentType":5126,"count":24,"max":[0.5625,0.84375],"min":[0,0],"type":"VEC2"},{"bufferView":11,"componentType":5123,"count":36,"max":[23],"min":[0],"type":"SCALAR"},{"bufferView":12,"componentType":5126,"count":24,"max":[0.3125,0.046875,0.109375],"min":[-0.3125,0.015625,-0.109375],"type":"VEC3"},{"bufferView":13,"componentType":5126,"count":24,"max":[1,1,1],"min":[-1,-1,-1],"type":"VEC3"},{"bufferView":14,"componentType":5126,"count":24,"max":[0.90625,0.625],"min":[0.28125,0],"type":"VEC2"},{"bufferView":15,"componentType":5123,"count":36,"max":[23],"min":[0],"type":"SCALAR"},{"bufferView":16,"componentType":5126,"count":40,"max":[0.0390625,0.0859375,0.0546875],"min":[-0.0390625,0.0390625,-0.0546875],"type":"VEC3"},{"bufferView":17,"componentType":5126,"count":40,"max":[1,0.9906211495399475,1],"min":[-1,-1,-0.9883716702461243],"type":"VEC3"},{"bufferView":18,"componentType":5126,"count":40,"max":[0.6796875,0.6875],"min":[0.3125,0],"type":"VEC2"},{"bufferView":19,"componentType":5123,"count":60,"max":[39],"min":[0],"type":"SCALAR"},{"bufferView":20,"componentType":5126,"count":240,"max":[0.41668203473091125,0.08054183423519135,0.29512330889701843],"min":[-0.6121432185173035,-0.0062500000931322575,-0.1326172649860382],"type":"VEC3"},{"bufferView":21,"componentType":5126,"count":240,"max":[0.9927170276641846,1,0.9400878548622131],"min":[-0.9529193639755249,-0.8149619698524475,-0.940144956111908],"type":"VEC3"},{"bufferView":22,"componentType":5126,"count":240,"max":[1,1],"min":[0,0],"type":"VEC2"},{"bufferView":23,"componentType":5123,"count":240,"max":[239],"min":[0],"type":"SCALAR"},{"bufferView":24,"componentType":5126,"count":240,"max":[0.1594802588224411,0.14333105087280273,0.3214510977268219],"min":[-0.6056365370750427,-0.0062500000931322575,-0.09039288014173508],"type":"VEC3"},{"bufferView":25,"componentType":5126,"count":240,"max":[0.9991022348403931,1,0.9023318886756897],"min":[-0.938353419303894,-0.8118519186973572,-0.9356221556663513],"type":"VEC3"},{"bufferView":26,"componentType":5126,"count":240,"max":[1,1],"min":[0,0],"type":"VEC2"},{"bufferView":27,"componentType":5123,"count":240,"max":[239],"min":[0],"type":"SCALAR"},{"bufferView":28,"componentType":5126,"count":240,"max":[-0.2621409296989441,0.20582954585552216,0.29440587759017944],"min":[-0.6894111633300781,-0.00586623465642333,-0.0728822648525238],"type":"VEC3"},{"bufferView":29,"componentType":5126,"count":240,"max":[0.9751957654953003,0.9781942963600159,0.9305281639099121],"min":[-0.8760992884635925,-0.9497289061546326,-0.930121898651123],"type":"VEC3"},{"bufferView":30,"componentType":5126,"count":240,"max":[1,1],"min":[0,0],"type":"VEC2"},{"bufferView":31,"componentType":5123,"count":240,"max":[239],"min":[0],"type":"SCALAR"}],"materials":[{"pbrMetallicRoughness":{"metallicFactor":0,"roughnessFactor":1,"baseColorTexture":{"index":0}},"alphaMode":"MASK","alphaCutoff":0.05,"doubleSided":true},{"pbrMetallicRoughness":{"metallicFactor":0,"roughnessFactor":1,"baseColorTexture":{"index":1}},"alphaMode":"MASK","alphaCutoff":0.05,"doubleSided":true},{"pbrMetallicRoughness":{"metallicFactor":0,"roughnessFactor":1},"alphaMode":"MASK","alphaCutoff":0.05,"doubleSided":true}],"textures":[{"sampler":0,"source":0,"name":"tx_pc_model.png"},{"sampler":1,"source":1,"name":"tx_pc_parts"}],"samplers":[{"magFilter":9728,"minFilter":9728,"wrapS":33071,"wrapT":33071},{"magFilter":9728,"minFilter":9728,"wrapS":33071,"wrapT":33071}],"images":[{"mimeType":"image/png","uri":"data:image/png;base64,"},{"mimeType":"image/png","uri":"data:image/png;base64,"}],"meshes":[{"primitives":[{"mode":4,"attributes":{"POSITION":0,"NORMAL":1,"TEXCOORD_0":2},"indices":3,"material":0}]},{"primitives":[{"mode":4,"attributes":{"POSITION":4,"NORMAL":5,"TEXCOORD_0":6},"indices":7,"material":0}]},{"primitives":[{"mode":4,"attributes":{"POSITION":8,"NORMAL":9,"TEXCOORD_0":10},"indices":11,"material":1}]},{"primitives":[{"mode":4,"attributes":{"POSITION":12,"NORMAL":13,"TEXCOORD_0":14},"indices":15,"material":1}]},{"primitives":[{"mode":4,"attributes":{"POSITION":16,"NORMAL":17,"TEXCOORD_0":18},"indices":19,"material":1}]},{"primitives":[{"mode":4,"attributes":{"POSITION":20,"NORMAL":21,"TEXCOORD_0":22},"indices":23,"material":2}]},{"primitives":[{"mode":4,"attributes":{"POSITION":24,"NORMAL":25,"TEXCOORD_0":26},"indices":27,"material":2}]},{"primitives":[{"mode":4,"attributes":{"POSITION":28,"NORMAL":29,"TEXCOORD_0":30},"indices":31,"material":2}]}]}