{"asset":{"version":"2.0","generator":"Blockbench 5.0.7 glTF exporter"},"scenes":[{"nodes":[2,3,4],"name":"blockbench_export"}],"scene":0,"nodes":[{"translation":[0,0.125,-0.3125],"name":"Beak","mesh":0},{"name":"Body","mesh":1},{"name":"root","children":[0,1]},{"rotation":[0,-0.19509032201612825,0,0.9807852804032304],"translation":[-0.375,0.125,0],"name":"WingLeft","mesh":2},{"rotation":[0,0.19509032201612825,0,0.9807852804032304],"translation":[0.375,0.125,0],"name":"WingRight","mesh":3}],"bufferViews":[{"buffer":0,"byteOffset":0,"byteLength":288,"target":34962,"byteStride":12},{"buffer":0,"byteOffset":288,"byteLength":288,"target":34962,"byteStride":12},{"buffer":0,"byteOffset":576,"byteLength":192,"target":34962,"byteStride":8},{"buffer":0,"byteOffset":768,"byteLength":72,"target":34963},{"buffer":0,"byteOffset":840,"byteLength":1152,"target":34962,"byteStride":12},{"buffer":0,"byteOffset":1992,"byteLength":1152,"target":34962,"byteStride":12},{"buffer":0,"byteOffset":3144,"byteLength":768,"target":34962,"byteStride":8},{"buffer":0,"byteOffset":3912,"byteLength":264,"target":34963},{"buffer":0,"byteOffset":4176,"byteLength":288,"target":34962,"byteStride":12},{"buffer":0,"byteOffset":4464,"byteLength":288,"target":34962,"byteStride":12},{"buffer":0,"byteOffset":4752,"byteLength":192,"target":34962,"byteStride":8},{"buffer":0,"byteOffset":4944,"byteLength":72,"target":34963},{"buffer":0,"byteOffset":5016,"byteLength":288,"target":34962,"byteStride":12},{"buffer":0,"byteOffset":5304,"byteLength":288,"target":34962,"byteStride":12},{"buffer":0,"byteOffset":5592,"byteLength":192,"target":34962,"byteStride":8},{"buffer":0,"byteOffset":5784,"byteLength":72,"target":34963}],"buffers":[{"byteLength":5856,"uri":"data:application/octet-stream;base64,"}],"accessors":[{"bufferView":0,"componentType":5126,"count":24,"max":[0.09375,0.09375,0.0625],"min":[-0.09375,0,-0.078125],"type":"VEC3"},{"bufferView":1,"componentType":5126,"count":24,"max":[0.8944271802902222,1,1],"min":[-0.8944271802902222,-1,-0.7682212591171265],"type":"VEC3"},{"bufferView":2,"componentType":5126,"count":24,"max":[0.65625,0.6149062514305115],"min":[0.375,0.03125],"type":"VEC2"},{"bufferView":3,"componentType":5123,"count":36,"max":[23],"min":[0],"type":"SCALAR"},{"bufferView":4,"componentType":5126,"count":96,"max":[0.25,0.5,0.25],"min":[-0.25,0,-0.25],"type":"VEC3"},{"bufferView":5,"componentType":5126,"count":96,"max":[1,1,1],"min":[-1,-1,-1],"type":"VEC3"},{"bufferView":6,"componentType":5126,"count":96,"max":[0.7648351788520813,0.75],"min":[0,0],"type":"VEC2"},{"bufferView":7,"componentType":5123,"count":132,"max":[95],"min":[0],"type":"SCALAR"},{"bufferView":8,"componentType":5126,"count":24,"max":[0.125,0.25,0.125],"min":[0.0625,0,-0.13695885241031647],"type":"VEC3"},{"bufferView":9,"componentType":5126,"count":24,"max":[1,0.9922778606414795,1],"min":[-0.9939813613891602,-0.9980525970458984,-0.942197322845459],"type":"VEC3"},{"bufferView":10,"componentType":5126,"count":24,"max":[0.59375,0.694406270980835],"min":[0,0.1875],"type":"VEC2"},{"bufferView":11,"componentType":5123,"count":36,"max":[23],"min":[0],"type":"SCALAR"},{"bufferView":12,"componentType":5126,"count":24,"max":[-0.0625,0.25,0.125],"min":[-0.125,0,-0.13695885241031647],"type":"VEC3"},{"bufferView":13,"componentType":5126,"count":24,"max":[0.9939813613891602,0.9922778606414795,1],"min":[-1,-0.9980525970458984,-0.942197322845459],"type":"VEC3"},{"bufferView":14,"componentType":5126,"count":24,"max":[0.5625,0.694406270980835],"min":[0.03125,0.3125],"type":"VEC2"},{"bufferView":15,"componentType":5123,"count":36,"max":[23],"min":[0],"type":"SCALAR"}],"materials":[{"pbrMetallicRoughness":{"metallicFactor":0,"roughnessFactor":1,"baseColorTexture":{"index":0}},"alphaMode":"MASK","alphaCutoff":0.05,"doubleSided":true}],"textures":[{"sampler":0,"source":0,"name":"texture"}],"samplers":[{"magFilter":9728,"minFilter":9728,"wrapS":33071,"wrapT":33071}],"images":[{"mimeType":"image/png","uri":"data:image/png;base64,"}],"meshes":[{"primitives":[{"mode":4,"attributes":{"POSITION":0,"NORMAL":1,"TEXCOORD_0":2},"indices":3,"material":0}]},{"primitives":[{"mode":4,"attributes":{"POSITION":4,"NORMAL":5,"TEXCOORD_0":6},"indices":7,"material":0}]},{"primitives":[{"mode":4,"attributes":{"POSITION":8,"NORMAL":9,"TEXCOORD_0":10},"indices":11,"material":0}]},{"primitives":[{"mode":4,"attributes":{"POSITION":12,"NORMAL":13,"TEXCOORD_0":14},"indices":15,"material":0}]}]}