{"asset":{"version":"2.0","generator":"Blockbench 5.0.7 glTF exporter"},"scenes":[{"nodes":[8],"name":"blockbench_export"}],"scene":0,"nodes":[{"rotation":[-0.7071067811865475,0,0,0.7071067811865476],"translation":[0,0.125,-0.096875],"name":"Clock","mesh":0},{"translation":[0,0.125,-0.1],"name":"MinuteArrow","mesh":1},{"rotation":[0,0,0.7071067811865475,0.7071067811865476],"translation":[0,0.125,-0.1],"name":"HourArrow","mesh":2},{"translation":[-0.0875,0.25625,-0.1],"name":"DoorRight","mesh":3},{"translation":[0.090625,0.25625,-0.1],"name":"DoorLeft","mesh":4},{"translation":[0,0.25,-0.125],"name":"DoorStick","mesh":5},{"name":"Base","mesh":6},{"rotation":[-0.7071067811865475,0,0,0.7071067811865476],"translation":[0,0.046875,0],"name":"SwingyBallsIdkwhatthisiscalled","mesh":7},{"name":"root","children":[0,1,2,3,4,5,6,7]}],"bufferViews":[{"buffer":0,"byteOffset":0,"byteLength":432,"target":34962,"byteStride":12},{"buffer":0,"byteOffset":432,"byteLength":432,"target":34962,"byteStride":12},{"buffer":0,"byteOffset":864,"byteLength":288,"target":34962,"byteStride":8},{"buffer":0,"byteOffset":1152,"byteLength":72,"target":34963},{"buffer":0,"byteOffset":1224,"byteLength":288,"target":34962,"byteStride":12},{"buffer":0,"byteOffset":1512,"byteLength":288,"target":34962,"byteStride":12},{"buffer":0,"byteOffset":1800,"byteLength":192,"target":34962,"byteStride":8},{"buffer":0,"byteOffset":1992,"byteLength":72,"target":34963},{"buffer":0,"byteOffset":2064,"byteLength":288,"target":34962,"byteStride":12},{"buffer":0,"byteOffset":2352,"byteLength":288,"target":34962,"byteStride":12},{"buffer":0,"byteOffset":2640,"byteLength":192,"target":34962,"byteStride":8},{"buffer":0,"byteOffset":2832,"byteLength":72,"target":34963},{"buffer":0,"byteOffset":2904,"byteLength":288,"target":34962,"byteStride":12},{"buffer":0,"byteOffset":3192,"byteLength":288,"target":34962,"byteStride":12},{"buffer":0,"byteOffset":3480,"byteLength":192,"target":34962,"byteStride":8},{"buffer":0,"byteOffset":3672,"byteLength":72,"target":34963},{"buffer":0,"byteOffset":3744,"byteLength":288,"target":34962,"byteStride":12},{"buffer":0,"byteOffset":4032,"byteLength":288,"target":34962,"byteStride":12},{"buffer":0,"byteOffset":4320,"byteLength":192,"target":34962,"byteStride":8},{"buffer":0,"byteOffset":4512,"byteLength":72,"target":34963},{"buffer":0,"byteOffset":4584,"byteLength":288,"target":34962,"byteStride":12},{"buffer":0,"byteOffset":4872,"byteLength":288,"target":34962,"byteStride":12},{"buffer":0,"byteOffset":5160,"byteLength":192,"target":34962,"byteStride":8},{"buffer":0,"byteOffset":5352,"byteLength":72,"target":34963},{"buffer":0,"byteOffset":5424,"byteLength":1632,"target":34962,"byteStride":12},{"buffer":0,"byteOffset":7056,"byteLength":1632,"target":34962,"byteStride":12},{"buffer":0,"byteOffset":8688,"byteLength":1088,"target":34962,"byteStride":8},{"buffer":0,"byteOffset":9776,"byteLength":408,"target":34963},{"buffer":0,"byteOffset":10184,"byteLength":1152,"target":34962,"byteStride":12},{"buffer":0,"byteOffset":11336,"byteLength":1152,"target":34962,"byteStride":12},{"buffer":0,"byteOffset":12488,"byteLength":768,"target":34962,"byteStride":8},{"buffer":0,"byteOffset":13256,"byteLength":240,"target":34963}],"buffers":[{"byteLength":13496,"uri":"data:application/octet-stream;base64,"}],"accessors":[{"bufferView":0,"componentType":5126,"count":36,"max":[0.09375,0,0.09375],"min":[-0.09375,0,-0.09375],"type":"VEC3"},{"bufferView":1,"componentType":5126,"count":36,"max":[0,1,0],"min":[0,1,0],"type":"VEC3"},{"bufferView":2,"componentType":5126,"count":36,"max":[0.34375,0.09375],"min":[0.25,0],"type":"VEC2"},{"bufferView":3,"componentType":5123,"count":36,"max":[35],"min":[0],"type":"SCALAR"},{"bufferView":4,"componentType":5126,"count":24,"max":[0.0031250000465661287,0.08124999701976776,0.0062500000931322575],"min":[-0.0031250000465661287,0,0],"type":"VEC3"},{"bufferView":5,"componentType":5126,"count":24,"max":[1,1,1],"min":[-1,-1,-1],"type":"VEC3"},{"bufferView":6,"componentType":5126,"count":24,"max":[0.65625,0.65625],"min":[0,0.3125],"type":"VEC2"},{"bufferView":7,"componentType":5123,"count":36,"max":[23],"min":[0],"type":"SCALAR"},{"bufferView":8,"componentType":5126,"count":24,"max":[0.0031250000465661287,0.05000000074505806,0.0062500000931322575],"min":[-0.0031250000465661287,0,0],"type":"VEC3"},{"bufferView":9,"componentType":5126,"count":24,"max":[1,1,1],"min":[-1,-1,-1],"type":"VEC3"},{"bufferView":10,"componentType":5126,"count":24,"max":[0.6875,0.6875],"min":[0.125,0],"type":"VEC2"},{"bufferView":11,"componentType":5123,"count":36,"max":[23],"min":[0],"type":"SCALAR"},{"bufferView":12,"componentType":5126,"count":24,"max":[0.08749999850988388,0.07500000298023224,0.0062500000931322575],"min":[-0.0062500000931322575,0,-0.0062500000931322575],"type":"VEC3"},{"bufferView":13,"componentType":5126,"count":24,"max":[1,1,1],"min":[-1,-1,-1],"type":"VEC3"},{"bufferView":14,"componentType":5126,"count":24,"max":[0.6875,0.59375],"min":[0,0.125],"type":"VEC2"},{"bufferView":15,"componentType":5123,"count":36,"max":[23],"min":[0],"type":"SCALAR"},{"bufferView":16,"componentType":5126,"count":24,"max":[0.0031250000465661287,0.07500000298023224,0.0062500000931322575],"min":[-0.09062500298023224,0,-0.0062500000931322575],"type":"VEC3"},{"bufferView":17,"componentType":5126,"count":24,"max":[1,1,1],"min":[-1,-1,-1],"type":"VEC3"},{"bufferView":18,"componentType":5126,"count":24,"max":[0.65625,0.6875],"min":[0.15625,0.1875],"type":"VEC2"},{"bufferView":19,"componentType":5123,"count":36,"max":[23],"min":[0],"type":"SCALAR"},{"bufferView":20,"componentType":5126,"count":24,"max":[0.00937500037252903,0.02500000037252903,0.03125],"min":[-0.00937500037252903,0.012500000186264515,-0.078125],"type":"VEC3"},{"bufferView":21,"componentType":5126,"count":24,"max":[1,1,1],"min":[-1,-1,-1],"type":"VEC3"},{"bufferView":22,"componentType":5126,"count":24,"max":[0.625,0.59375],"min":[0,0.28125],"type":"VEC2"},{"bufferView":23,"componentType":5123,"count":36,"max":[23],"min":[0],"type":"SCALAR"},{"bufferView":24,"componentType":5126,"count":136,"max":[0.19374999403953552,0.46875,0.09375],"min":[-0.19374999403953552,0,-0.125],"type":"VEC3"},{"bufferView":25,"componentType":5126,"count":136,"max":[1,0.8209052085876465,1],"min":[-1,-1,-1],"type":"VEC3"},{"bufferView":26,"componentType":5126,"count":136,"max":[0.703125,0.609375],"min":[0,0],"type":"VEC2"},{"bufferView":27,"componentType":5123,"count":204,"max":[135],"min":[0],"type":"SCALAR"},{"bufferView":28,"componentType":5126,"count":96,"max":[0.046875,0.012500000186264515,0],"min":[-0.046875,-5.204170427930421e-17,-0.28125],"type":"VEC3"},{"bufferView":29,"componentType":5126,"count":96,"max":[1,1,1],"min":[-1,-1,-1],"type":"VEC3"},{"bufferView":30,"componentType":5126,"count":96,"max":[0.984375,0.109375],"min":[0.015625,0.015625],"type":"VEC2"},{"bufferView":31,"componentType":5123,"count":120,"max":[95],"min":[0],"type":"SCALAR"}],"materials":[{"pbrMetallicRoughness":{"metallicFactor":0,"roughnessFactor":1,"baseColorTexture":{"index":0}},"alphaMode":"MASK","alphaCutoff":0.05,"doubleSided":true},{"pbrMetallicRoughness":{"metallicFactor":0,"roughnessFactor":1,"baseColorTexture":{"index":1}},"alphaMode":"MASK","alphaCutoff":0.05,"doubleSided":true}],"textures":[{"sampler":0,"source":0,"name":"tx_cuckoo_clock.png"},{"sampler":1,"source":1,"name":"tx_swingy_balls"}],"samplers":[{"magFilter":9728,"minFilter":9728,"wrapS":33071,"wrapT":33071},{"magFilter":9728,"minFilter":9728,"wrapS":33071,"wrapT":33071}],"images":[{"mimeType":"image/png","uri":"data:image/png;base64,"},{"mimeType":"image/png","uri":"data:image/png;base64,"}],"meshes":[{"primitives":[{"mode":4,"attributes":{"POSITION":0,"NORMAL":1,"TEXCOORD_0":2},"indices":3,"material":0}]},{"primitives":[{"mode":4,"attributes":{"POSITION":4,"NORMAL":5,"TEXCOORD_0":6},"indices":7,"material":0}]},{"primitives":[{"mode":4,"attributes":{"POSITION":8,"NORMAL":9,"TEXCOORD_0":10},"indices":11,"material":0}]},{"primitives":[{"mode":4,"attributes":{"POSITION":12,"NORMAL":13,"TEXCOORD_0":14},"indices":15,"material":0}]},{"primitives":[{"mode":4,"attributes":{"POSITION":16,"NORMAL":17,"TEXCOORD_0":18},"indices":19,"material":0}]},{"primitives":[{"mode":4,"attributes":{"POSITION":20,"NORMAL":21,"TEXCOORD_0":22},"indices":23,"material":0}]},{"primitives":[{"mode":4,"attributes":{"POSITION":24,"NORMAL":25,"TEXCOORD_0":26},"indices":27,"material":0}]},{"primitives":[{"mode":4,"attributes":{"POSITION":28,"NORMAL":29,"TEXCOORD_0":30},"indices":31,"material":1}]}]}