{"asset":{"version":"2.0","generator":"Blockbench 5.0.7 glTF exporter"},"scenes":[{"nodes":[3],"name":"blockbench_export"}],"scene":0,"nodes":[{"name":"Base","mesh":0},{"translation":[0.0625,0.14374999999999996,0.03125],"name":"Plus","mesh":1},{"translation":[-0.0625,0.14374999999999996,0.03125],"name":"Minus","mesh":2},{"name":"root","children":[0,1,2]}],"bufferViews":[{"buffer":0,"byteOffset":0,"byteLength":1056,"target":34962,"byteStride":12},{"buffer":0,"byteOffset":1056,"byteLength":1056,"target":34962,"byteStride":12},{"buffer":0,"byteOffset":2112,"byteLength":704,"target":34962,"byteStride":8},{"buffer":0,"byteOffset":2816,"byteLength":264,"target":34963},{"buffer":0,"byteOffset":3080,"byteLength":600,"target":34962,"byteStride":12},{"buffer":0,"byteOffset":3680,"byteLength":600,"target":34962,"byteStride":12},{"buffer":0,"byteOffset":4280,"byteLength":400,"target":34962,"byteStride":8},{"buffer":0,"byteOffset":4680,"byteLength":120,"target":34963},{"buffer":0,"byteOffset":4800,"byteLength":600,"target":34962,"byteStride":12},{"buffer":0,"byteOffset":5400,"byteLength":600,"target":34962,"byteStride":12},{"buffer":0,"byteOffset":6000,"byteLength":400,"target":34962,"byteStride":8},{"buffer":0,"byteOffset":6400,"byteLength":120,"target":34963}],"buffers":[{"byteLength":6520,"uri":"data:application/octet-stream;base64,"}],"accessors":[{"bufferView":0,"componentType":5126,"count":88,"max":[0.10883883386850357,0.14374999701976776,0.07758883386850357],"min":[-0.10883883386850357,0,-0.07758883386850357],"type":"VEC3"},{"bufferView":1,"componentType":5126,"count":88,"max":[1,1,1],"min":[-1,-1,-1],"type":"VEC3"},{"bufferView":2,"componentType":5126,"count":88,"max":[0.875,0.75],"min":[0,0],"type":"VEC2"},{"bufferView":3,"componentType":5123,"count":132,"max":[87],"min":[0],"type":"SCALAR"},{"bufferView":4,"componentType":5126,"count":50,"max":[0.01836828887462616,0.03125,0.015625],"min":[-0.01836828887462616,0,-0.019313562661409378],"type":"VEC3"},{"bufferView":5,"componentType":5126,"count":50,"max":[0.9510565400123596,1,1],"min":[-0.9510565400123596,-1,-0.80901700258255],"type":"VEC3"},{"bufferView":6,"componentType":5126,"count":50,"max":[0.8543062210083008,0.875],"min":[0,0.125],"type":"VEC2"},{"bufferView":7,"componentType":5123,"count":60,"max":[49],"min":[0],"type":"SCALAR"},{"bufferView":8,"componentType":5126,"count":50,"max":[0.01836828887462616,0.03125,0.015625],"min":[-0.01836828887462616,0,-0.019313562661409378],"type":"VEC3"},{"bufferView":9,"componentType":5126,"count":50,"max":[0.9510565400123596,1,1],"min":[-0.9510565400123596,-1,-0.80901700258255],"type":"VEC3"},{"bufferView":10,"componentType":5126,"count":50,"max":[0.9168062210083008,0.875],"min":[0.25,0.13693749904632568],"type":"VEC2"},{"bufferView":11,"componentType":5123,"count":60,"max":[49],"min":[0],"type":"SCALAR"}],"materials":[{"pbrMetallicRoughness":{"metallicFactor":0,"roughnessFactor":1,"baseColorTexture":{"index":0}},"alphaMode":"MASK","alphaCutoff":0.05,"doubleSided":true}],"textures":[{"sampler":0,"source":0,"name":"tx_battery"}],"samplers":[{"magFilter":9728,"minFilter":9728,"wrapS":33071,"wrapT":33071}],"images":[{"mimeType":"image/png","uri":"data:image/png;base64,"}],"meshes":[{"primitives":[{"mode":4,"attributes":{"POSITION":0,"NORMAL":1,"TEXCOORD_0":2},"indices":3,"material":0}]},{"primitives":[{"mode":4,"attributes":{"POSITION":4,"NORMAL":5,"TEXCOORD_0":6},"indices":7,"material":0}]},{"primitives":[{"mode":4,"attributes":{"POSITION":8,"NORMAL":9,"TEXCOORD_0":10},"indices":11,"material":0}]}]}